<?xml version="1.0" encoding="utf-8" standalone="no"?>
<!DOCTYPE svg PUBLIC "-//W3C//DTD SVG 1.1//EN"
  "http://www.w3.org/Graphics/SVG/1.1/DTD/svg11.dtd">
<!-- Created with matplotlib (https://matplotlib.org/) -->
<svg height="702pt" version="1.1" viewBox="0 0 1080 702" width="1080pt" xmlns="http://www.w3.org/2000/svg" xmlns:xlink="http://www.w3.org/1999/xlink">
 <defs>
  <style type="text/css">
*{stroke-linecap:butt;stroke-linejoin:round;}
  </style>
 </defs>
 <g id="figure_1">
  <g id="patch_1">
   <path d="M 0 702 
L 1080 702 
L 1080 0 
L 0 0 
z
" style="fill:#ffffff;"/>
  </g>
  <g id="axes_1">
   <g id="patch_2">
    <path d="M 135 160.834737 
L 218.7 160.834737 
L 218.7 84.24 
L 135 84.24 
z
" style="fill:#ffffff;"/>
   </g>
   <g id="patch_3">
    <path clip-path="url(#pddd0007fda)" d="M 135 160.834737 
L 218.7 160.834737 
L 218.7 84.24 
L 135 84.24 
z
" style="fill:#b7d4ea;stroke:#000000;stroke-linejoin:miter;"/>
   </g>
   <g id="matplotlib.axis_1"/>
   <g id="matplotlib.axis_2"/>
  </g>
  <g id="axes_2">
   <g id="patch_4">
    <path d="M 218.7 160.834737 
L 302.4 160.834737 
L 302.4 84.24 
L 218.7 84.24 
z
" style="fill:#ffffff;"/>
   </g>
   <g id="patch_5">
    <path clip-path="url(#p4f441d4d40)" d="M 218.7 160.834737 
L 302.4 160.834737 
L 302.4 84.24 
L 218.7 84.24 
z
" style="fill:#fdc38d;stroke:#000000;stroke-linejoin:miter;"/>
   </g>
   <g id="matplotlib.axis_3"/>
   <g id="matplotlib.axis_4"/>
  </g>
  <g id="axes_3">
   <g id="patch_6">
    <path d="M 302.4 160.834737 
L 386.1 160.834737 
L 386.1 84.24 
L 302.4 84.24 
z
" style="fill:#ffffff;"/>
   </g>
   <g id="patch_7">
    <path clip-path="url(#p14489aa5b4)" d="M 302.4 160.834737 
L 386.1 160.834737 
L 386.1 84.24 
L 302.4 84.24 
z
" style="fill:#b8e3b2;stroke:#000000;stroke-linejoin:miter;"/>
   </g>
   <g id="matplotlib.axis_5"/>
   <g id="matplotlib.axis_6"/>
  </g>
  <g id="axes_4">
   <g id="patch_8">
    <path d="M 386.1 160.834737 
L 469.8 160.834737 
L 469.8 84.24 
L 386.1 84.24 
z
" style="fill:#ffffff;"/>
   </g>
   <g id="patch_9">
    <path clip-path="url(#pd5e7abeb9a)" d="M 386.1 160.834737 
L 469.8 160.834737 
L 469.8 84.24 
L 386.1 84.24 
z
" style="fill:#d92523;stroke:#000000;stroke-linejoin:miter;"/>
   </g>
   <g id="matplotlib.axis_7"/>
   <g id="matplotlib.axis_8"/>
  </g>
  <g id="axes_5">
   <g id="patch_10">
    <path d="M 469.8 160.834737 
L 972 160.834737 
L 972 84.24 
L 469.8 84.24 
z
" style="fill:none;opacity:0;"/>
   </g>
   <g id="patch_11">
    <path clip-path="url(#pabfe98fef1)" d="M 469.8 157.353158 
L 801.304632 157.353158 
L 801.304632 139.945263 
L 469.8 139.945263 
z
" style="fill:#c8c8c8;stroke:#000000;stroke-linejoin:miter;"/>
   </g>
   <g id="patch_12">
    <path clip-path="url(#pabfe98fef1)" d="M 469.8 139.945263 
L 862.455972 139.945263 
L 862.455972 122.537368 
L 469.8 122.537368 
z
" style="fill:#888888;stroke:#000000;stroke-linejoin:miter;"/>
   </g>
   <g id="patch_13">
    <path clip-path="url(#pabfe98fef1)" d="M 469.8 122.537368 
L 798.08614 122.537368 
L 798.08614 105.129474 
L 469.8 105.129474 
z
" style="fill:#484848;stroke:#000000;stroke-linejoin:miter;"/>
   </g>
   <g id="patch_14">
    <path clip-path="url(#pabfe98fef1)" d="M 469.8 105.129474 
L 936.481278 105.129474 
L 936.481278 87.721579 
L 469.8 87.721579 
z
" style="stroke:#000000;stroke-linejoin:miter;"/>
   </g>
   <g id="matplotlib.axis_9"/>
   <g id="matplotlib.axis_10"/>
   <g id="LineCollection_1">
    <path clip-path="url(#pabfe98fef1)" d="M 801.304632 148.649211 
L 812.909068 148.649211 
" style="fill:none;stroke:#000000;stroke-width:1.5;"/>
   </g>
   <g id="LineCollection_2">
    <path clip-path="url(#pabfe98fef1)" d="M 862.455972 131.241316 
L 874.060408 131.241316 
" style="fill:none;stroke:#000000;stroke-width:1.5;"/>
   </g>
   <g id="LineCollection_3">
    <path clip-path="url(#pabfe98fef1)" d="M 798.08614 113.833421 
L 809.690577 113.833421 
" style="fill:none;stroke:#000000;stroke-width:1.5;"/>
   </g>
   <g id="LineCollection_4">
    <path clip-path="url(#pabfe98fef1)" d="M 936.481278 96.425526 
L 948.085714 96.425526 
" style="fill:none;stroke:#000000;stroke-width:1.5;"/>
   </g>
   <g id="line2d_1">
    <defs>
     <path d="M 0 5 
L 0 -5 
" id="m2f43dfb56b" style="stroke:#000000;"/>
    </defs>
    <g clip-path="url(#pabfe98fef1)">
     <use style="stroke:#000000;" x="801.304632" xlink:href="#m2f43dfb56b" y="148.649211"/>
    </g>
   </g>
   <g id="line2d_2">
    <g clip-path="url(#pabfe98fef1)">
     <use style="stroke:#000000;" x="812.909068" xlink:href="#m2f43dfb56b" y="148.649211"/>
    </g>
   </g>
   <g id="line2d_3">
    <g clip-path="url(#pabfe98fef1)">
     <use style="stroke:#000000;" x="862.455972" xlink:href="#m2f43dfb56b" y="131.241316"/>
    </g>
   </g>
   <g id="line2d_4">
    <g clip-path="url(#pabfe98fef1)">
     <use style="stroke:#000000;" x="874.060408" xlink:href="#m2f43dfb56b" y="131.241316"/>
    </g>
   </g>
   <g id="line2d_5">
    <g clip-path="url(#pabfe98fef1)">
     <use style="stroke:#000000;" x="798.08614" xlink:href="#m2f43dfb56b" y="113.833421"/>
    </g>
   </g>
   <g id="line2d_6">
    <g clip-path="url(#pabfe98fef1)">
     <use style="stroke:#000000;" x="809.690577" xlink:href="#m2f43dfb56b" y="113.833421"/>
    </g>
   </g>
   <g id="line2d_7">
    <g clip-path="url(#pabfe98fef1)">
     <use style="stroke:#000000;" x="936.481278" xlink:href="#m2f43dfb56b" y="96.425526"/>
    </g>
   </g>
   <g id="line2d_8">
    <g clip-path="url(#pabfe98fef1)">
     <use style="stroke:#000000;" x="948.085714" xlink:href="#m2f43dfb56b" y="96.425526"/>
    </g>
   </g>
  </g>
  <g id="axes_6">
   <g id="patch_15">
    <path d="M 135 244.541842 
L 218.7 244.541842 
L 218.7 167.947105 
L 135 167.947105 
z
" style="fill:#ffffff;"/>
   </g>
   <g id="patch_16">
    <path clip-path="url(#p4663285465)" d="M 135 244.541842 
L 218.7 244.541842 
L 218.7 167.947105 
L 135 167.947105 
z
" style="fill:#b7d4ea;stroke:#000000;stroke-linejoin:miter;"/>
   </g>
   <g id="matplotlib.axis_11"/>
   <g id="matplotlib.axis_12"/>
  </g>
  <g id="axes_7">
   <g id="patch_17">
    <path d="M 218.7 244.541842 
L 302.4 244.541842 
L 302.4 167.947105 
L 218.7 167.947105 
z
" style="fill:#ffffff;"/>
   </g>
   <g id="patch_18">
    <path clip-path="url(#pf9772d4f7e)" d="M 218.7 244.541842 
L 302.4 244.541842 
L 302.4 167.947105 
L 218.7 167.947105 
z
" style="fill:#fd8c3b;stroke:#000000;stroke-linejoin:miter;"/>
   </g>
   <g id="matplotlib.axis_13"/>
   <g id="matplotlib.axis_14"/>
  </g>
  <g id="axes_8">
   <g id="patch_19">
    <path d="M 302.4 244.541842 
L 386.1 244.541842 
L 386.1 167.947105 
L 302.4 167.947105 
z
" style="fill:#ffffff;"/>
   </g>
   <g id="patch_20">
    <path clip-path="url(#p2599a5129e)" d="M 302.4 244.541842 
L 386.1 244.541842 
L 386.1 167.947105 
L 302.4 167.947105 
z
" style="fill:#73c476;stroke:#000000;stroke-linejoin:miter;"/>
   </g>
   <g id="matplotlib.axis_15"/>
   <g id="matplotlib.axis_16"/>
  </g>
  <g id="axes_9">
   <g id="patch_21">
    <path d="M 386.1 244.541842 
L 469.8 244.541842 
L 469.8 167.947105 
L 386.1 167.947105 
z
" style="fill:#ffffff;"/>
   </g>
   <g id="patch_22">
    <path clip-path="url(#pbe0bf16247)" d="M 386.1 244.541842 
L 469.8 244.541842 
L 469.8 167.947105 
L 386.1 167.947105 
z
" style="fill:#980c13;stroke:#000000;stroke-linejoin:miter;"/>
   </g>
   <g id="matplotlib.axis_17"/>
   <g id="matplotlib.axis_18"/>
  </g>
  <g id="axes_10">
   <g id="patch_23">
    <path d="M 469.8 244.541842 
L 972 244.541842 
L 972 167.947105 
L 469.8 167.947105 
z
" style="fill:none;opacity:0;"/>
   </g>
   <g id="patch_24">
    <path clip-path="url(#pb26061ec1e)" d="M 469.8 241.060263 
L 801.304632 241.060263 
L 801.304632 223.652368 
L 469.8 223.652368 
z
" style="fill:#c8c8c8;stroke:#000000;stroke-linejoin:miter;"/>
   </g>
   <g id="patch_25">
    <path clip-path="url(#pb26061ec1e)" d="M 469.8 223.652368 
L 936.481278 223.652368 
L 936.481278 206.244474 
L 469.8 206.244474 
z
" style="fill:#888888;stroke:#000000;stroke-linejoin:miter;"/>
   </g>
   <g id="patch_26">
    <path clip-path="url(#pb26061ec1e)" d="M 469.8 206.244474 
L 872.111446 206.244474 
L 872.111446 188.836579 
L 469.8 188.836579 
z
" style="fill:#484848;stroke:#000000;stroke-linejoin:miter;"/>
   </g>
   <g id="patch_27">
    <path clip-path="url(#pb26061ec1e)" d="M 469.8 188.836579 
L 807.741615 188.836579 
L 807.741615 171.428684 
L 469.8 171.428684 
z
" style="stroke:#000000;stroke-linejoin:miter;"/>
   </g>
   <g id="matplotlib.axis_19"/>
   <g id="matplotlib.axis_20"/>
   <g id="LineCollection_5">
    <path clip-path="url(#pb26061ec1e)" d="M 801.304632 232.356316 
L 812.909068 232.356316 
" style="fill:none;stroke:#000000;stroke-width:1.5;"/>
   </g>
   <g id="LineCollection_6">
    <path clip-path="url(#pb26061ec1e)" d="M 936.481278 214.948421 
L 948.085714 214.948421 
" style="fill:none;stroke:#000000;stroke-width:1.5;"/>
   </g>
   <g id="LineCollection_7">
    <path clip-path="url(#pb26061ec1e)" d="M 872.111446 197.540526 
L 883.715883 197.540526 
" style="fill:none;stroke:#000000;stroke-width:1.5;"/>
   </g>
   <g id="LineCollection_8">
    <path clip-path="url(#pb26061ec1e)" d="M 807.741615 180.132632 
L 819.346051 180.132632 
" style="fill:none;stroke:#000000;stroke-width:1.5;"/>
   </g>
   <g id="line2d_9">
    <g clip-path="url(#pb26061ec1e)">
     <use style="stroke:#000000;" x="801.304632" xlink:href="#m2f43dfb56b" y="232.356316"/>
    </g>
   </g>
   <g id="line2d_10">
    <g clip-path="url(#pb26061ec1e)">
     <use style="stroke:#000000;" x="812.909068" xlink:href="#m2f43dfb56b" y="232.356316"/>
    </g>
   </g>
   <g id="line2d_11">
    <g clip-path="url(#pb26061ec1e)">
     <use style="stroke:#000000;" x="936.481278" xlink:href="#m2f43dfb56b" y="214.948421"/>
    </g>
   </g>
   <g id="line2d_12">
    <g clip-path="url(#pb26061ec1e)">
     <use style="stroke:#000000;" x="948.085714" xlink:href="#m2f43dfb56b" y="214.948421"/>
    </g>
   </g>
   <g id="line2d_13">
    <g clip-path="url(#pb26061ec1e)">
     <use style="stroke:#000000;" x="872.111446" xlink:href="#m2f43dfb56b" y="197.540526"/>
    </g>
   </g>
   <g id="line2d_14">
    <g clip-path="url(#pb26061ec1e)">
     <use style="stroke:#000000;" x="883.715883" xlink:href="#m2f43dfb56b" y="197.540526"/>
    </g>
   </g>
   <g id="line2d_15">
    <g clip-path="url(#pb26061ec1e)">
     <use style="stroke:#000000;" x="807.741615" xlink:href="#m2f43dfb56b" y="180.132632"/>
    </g>
   </g>
   <g id="line2d_16">
    <g clip-path="url(#pb26061ec1e)">
     <use style="stroke:#000000;" x="819.346051" xlink:href="#m2f43dfb56b" y="180.132632"/>
    </g>
   </g>
  </g>
  <g id="axes_11">
   <g id="patch_28">
    <path d="M 135 328.248947 
L 218.7 328.248947 
L 218.7 251.654211 
L 135 251.654211 
z
" style="fill:#ffffff;"/>
   </g>
   <g id="patch_29">
    <path clip-path="url(#pc7923a9f8a)" d="M 135 328.248947 
L 218.7 328.248947 
L 218.7 251.654211 
L 135 251.654211 
z
" style="fill:#6aaed6;stroke:#000000;stroke-linejoin:miter;"/>
   </g>
   <g id="matplotlib.axis_21"/>
   <g id="matplotlib.axis_22"/>
  </g>
  <g id="axes_12">
   <g id="patch_30">
    <path d="M 218.7 328.248947 
L 302.4 328.248947 
L 302.4 251.654211 
L 218.7 251.654211 
z
" style="fill:#ffffff;"/>
   </g>
   <g id="patch_31">
    <path clip-path="url(#p94fb7c1363)" d="M 218.7 328.248947 
L 302.4 328.248947 
L 302.4 251.654211 
L 218.7 251.654211 
z
" style="fill:#e25508;stroke:#000000;stroke-linejoin:miter;"/>
   </g>
   <g id="matplotlib.axis_23"/>
   <g id="matplotlib.axis_24"/>
  </g>
  <g id="axes_13">
   <g id="patch_32">
    <path d="M 302.4 328.248947 
L 386.1 328.248947 
L 386.1 251.654211 
L 302.4 251.654211 
z
" style="fill:#ffffff;"/>
   </g>
   <g id="patch_33">
    <path clip-path="url(#p653a05cf28)" d="M 302.4 328.248947 
L 386.1 328.248947 
L 386.1 251.654211 
L 302.4 251.654211 
z
" style="fill:#2f974e;stroke:#000000;stroke-linejoin:miter;"/>
   </g>
   <g id="matplotlib.axis_25"/>
   <g id="matplotlib.axis_26"/>
  </g>
  <g id="axes_14">
   <g id="patch_34">
    <path d="M 386.1 328.248947 
L 469.8 328.248947 
L 469.8 251.654211 
L 386.1 251.654211 
z
" style="fill:#ffffff;"/>
   </g>
   <g id="patch_35">
    <path clip-path="url(#p39b9bceafd)" d="M 386.1 328.248947 
L 469.8 328.248947 
L 469.8 251.654211 
L 386.1 251.654211 
z
" style="fill:#fcab8f;stroke:#000000;stroke-linejoin:miter;"/>
   </g>
   <g id="matplotlib.axis_27"/>
   <g id="matplotlib.axis_28"/>
  </g>
  <g id="axes_15">
   <g id="patch_36">
    <path d="M 469.8 328.248947 
L 972 328.248947 
L 972 251.654211 
L 469.8 251.654211 
z
" style="fill:none;opacity:0;"/>
   </g>
   <g id="patch_37">
    <path clip-path="url(#p9a835d2e5c)" d="M 469.8 324.767368 
L 817.964998 324.767368 
L 817.964998 307.359474 
L 469.8 307.359474 
z
" style="fill:#c8c8c8;stroke:#000000;stroke-linejoin:miter;"/>
   </g>
   <g id="patch_38">
    <path clip-path="url(#p9a835d2e5c)" d="M 469.8 307.359474 
L 875.992498 307.359474 
L 875.992498 289.951579 
L 469.8 289.951579 
z
" style="fill:#888888;stroke:#000000;stroke-linejoin:miter;"/>
   </g>
   <g id="patch_39">
    <path clip-path="url(#p9a835d2e5c)" d="M 469.8 289.951579 
L 784.37013 289.951579 
L 784.37013 272.543684 
L 469.8 272.543684 
z
" style="fill:#484848;stroke:#000000;stroke-linejoin:miter;"/>
   </g>
   <g id="patch_40">
    <path clip-path="url(#p9a835d2e5c)" d="M 469.8 272.543684 
L 937.074076 272.543684 
L 937.074076 255.135789 
L 469.8 255.135789 
z
" style="stroke:#000000;stroke-linejoin:miter;"/>
   </g>
   <g id="matplotlib.axis_29"/>
   <g id="matplotlib.axis_30"/>
   <g id="LineCollection_9">
    <path clip-path="url(#p9a835d2e5c)" d="M 817.964998 316.063421 
L 828.976636 316.063421 
" style="fill:none;stroke:#000000;stroke-width:1.5;"/>
   </g>
   <g id="LineCollection_10">
    <path clip-path="url(#p9a835d2e5c)" d="M 875.992498 298.655526 
L 887.004136 298.655526 
" style="fill:none;stroke:#000000;stroke-width:1.5;"/>
   </g>
   <g id="LineCollection_11">
    <path clip-path="url(#p9a835d2e5c)" d="M 784.37013 281.247632 
L 795.381768 281.247632 
" style="fill:none;stroke:#000000;stroke-width:1.5;"/>
   </g>
   <g id="LineCollection_12">
    <path clip-path="url(#p9a835d2e5c)" d="M 937.074076 263.839737 
L 948.085714 263.839737 
" style="fill:none;stroke:#000000;stroke-width:1.5;"/>
   </g>
   <g id="line2d_17">
    <g clip-path="url(#p9a835d2e5c)">
     <use style="stroke:#000000;" x="817.964998" xlink:href="#m2f43dfb56b" y="316.063421"/>
    </g>
   </g>
   <g id="line2d_18">
    <g clip-path="url(#p9a835d2e5c)">
     <use style="stroke:#000000;" x="828.976636" xlink:href="#m2f43dfb56b" y="316.063421"/>
    </g>
   </g>
   <g id="line2d_19">
    <g clip-path="url(#p9a835d2e5c)">
     <use style="stroke:#000000;" x="875.992498" xlink:href="#m2f43dfb56b" y="298.655526"/>
    </g>
   </g>
   <g id="line2d_20">
    <g clip-path="url(#p9a835d2e5c)">
     <use style="stroke:#000000;" x="887.004136" xlink:href="#m2f43dfb56b" y="298.655526"/>
    </g>
   </g>
   <g id="line2d_21">
    <g clip-path="url(#p9a835d2e5c)">
     <use style="stroke:#000000;" x="784.37013" xlink:href="#m2f43dfb56b" y="281.247632"/>
    </g>
   </g>
   <g id="line2d_22">
    <g clip-path="url(#p9a835d2e5c)">
     <use style="stroke:#000000;" x="795.381768" xlink:href="#m2f43dfb56b" y="281.247632"/>
    </g>
   </g>
   <g id="line2d_23">
    <g clip-path="url(#p9a835d2e5c)">
     <use style="stroke:#000000;" x="937.074076" xlink:href="#m2f43dfb56b" y="263.839737"/>
    </g>
   </g>
   <g id="line2d_24">
    <g clip-path="url(#p9a835d2e5c)">
     <use style="stroke:#000000;" x="948.085714" xlink:href="#m2f43dfb56b" y="263.839737"/>
    </g>
   </g>
  </g>
  <g id="axes_16">
   <g id="patch_41">
    <path d="M 135 411.956053 
L 218.7 411.956053 
L 218.7 335.361316 
L 135 335.361316 
z
" style="fill:#ffffff;"/>
   </g>
   <g id="patch_42">
    <path clip-path="url(#p4b8be88bd0)" d="M 135 411.956053 
L 218.7 411.956053 
L 218.7 335.361316 
L 135 335.361316 
z
" style="fill:#2e7ebc;stroke:#000000;stroke-linejoin:miter;"/>
   </g>
   <g id="matplotlib.axis_31"/>
   <g id="matplotlib.axis_32"/>
  </g>
  <g id="axes_17">
   <g id="patch_43">
    <path d="M 218.7 411.956053 
L 302.4 411.956053 
L 302.4 335.361316 
L 218.7 335.361316 
z
" style="fill:#ffffff;"/>
   </g>
   <g id="patch_44">
    <path clip-path="url(#p73a1cb43bc)" d="M 218.7 411.956053 
L 302.4 411.956053 
L 302.4 335.361316 
L 218.7 335.361316 
z
" style="fill:#e25508;stroke:#000000;stroke-linejoin:miter;"/>
   </g>
   <g id="matplotlib.axis_33"/>
   <g id="matplotlib.axis_34"/>
  </g>
  <g id="axes_18">
   <g id="patch_45">
    <path d="M 302.4 411.956053 
L 386.1 411.956053 
L 386.1 335.361316 
L 302.4 335.361316 
z
" style="fill:#ffffff;"/>
   </g>
   <g id="patch_46">
    <path clip-path="url(#p4fe97a0b63)" d="M 302.4 411.956053 
L 386.1 411.956053 
L 386.1 335.361316 
L 302.4 335.361316 
z
" style="fill:#2f974e;stroke:#000000;stroke-linejoin:miter;"/>
   </g>
   <g id="matplotlib.axis_35"/>
   <g id="matplotlib.axis_36"/>
  </g>
  <g id="axes_19">
   <g id="patch_47">
    <path d="M 386.1 411.956053 
L 469.8 411.956053 
L 469.8 335.361316 
L 386.1 335.361316 
z
" style="fill:#ffffff;"/>
   </g>
   <g id="patch_48">
    <path clip-path="url(#pf0d8406505)" d="M 386.1 411.956053 
L 469.8 411.956053 
L 469.8 335.361316 
L 386.1 335.361316 
z
" style="fill:#fb694a;stroke:#000000;stroke-linejoin:miter;"/>
   </g>
   <g id="matplotlib.axis_37"/>
   <g id="matplotlib.axis_38"/>
  </g>
  <g id="axes_20">
   <g id="patch_49">
    <path d="M 469.8 411.956053 
L 972 411.956053 
L 972 335.361316 
L 469.8 335.361316 
z
" style="fill:none;opacity:0;"/>
   </g>
   <g id="patch_50">
    <path clip-path="url(#p066cdde9af)" d="M 469.8 408.474474 
L 936.859013 408.474474 
L 936.859013 391.066579 
L 469.8 391.066579 
z
" style="fill:#c8c8c8;stroke:#000000;stroke-linejoin:miter;"/>
   </g>
   <g id="patch_51">
    <path clip-path="url(#p066cdde9af)" d="M 469.8 391.066579 
L 837.219757 391.066579 
L 837.219757 373.658684 
L 469.8 373.658684 
z
" style="fill:#888888;stroke:#000000;stroke-linejoin:miter;"/>
   </g>
   <g id="patch_52">
    <path clip-path="url(#p066cdde9af)" d="M 469.8 373.658684 
L 837.219757 373.658684 
L 837.219757 356.250789 
L 469.8 356.250789 
z
" style="fill:#484848;stroke:#000000;stroke-linejoin:miter;"/>
   </g>
   <g id="patch_53">
    <path clip-path="url(#p066cdde9af)" d="M 469.8 356.250789 
L 837.219757 356.250789 
L 837.219757 338.842895 
L 469.8 338.842895 
z
" style="stroke:#000000;stroke-linejoin:miter;"/>
   </g>
   <g id="matplotlib.axis_39"/>
   <g id="matplotlib.axis_40"/>
   <g id="LineCollection_13">
    <path clip-path="url(#p066cdde9af)" d="M 936.859013 399.770526 
L 948.085714 399.770526 
" style="fill:none;stroke:#000000;stroke-width:1.5;"/>
   </g>
   <g id="LineCollection_14">
    <path clip-path="url(#p066cdde9af)" d="M 837.219757 382.362632 
L 848.446458 382.362632 
" style="fill:none;stroke:#000000;stroke-width:1.5;"/>
   </g>
   <g id="LineCollection_15">
    <path clip-path="url(#p066cdde9af)" d="M 837.219757 364.954737 
L 848.446458 364.954737 
" style="fill:none;stroke:#000000;stroke-width:1.5;"/>
   </g>
   <g id="LineCollection_16">
    <path clip-path="url(#p066cdde9af)" d="M 837.219757 347.546842 
L 848.446458 347.546842 
" style="fill:none;stroke:#000000;stroke-width:1.5;"/>
   </g>
   <g id="line2d_25">
    <g clip-path="url(#p066cdde9af)">
     <use style="stroke:#000000;" x="936.859013" xlink:href="#m2f43dfb56b" y="399.770526"/>
    </g>
   </g>
   <g id="line2d_26">
    <g clip-path="url(#p066cdde9af)">
     <use style="stroke:#000000;" x="948.085714" xlink:href="#m2f43dfb56b" y="399.770526"/>
    </g>
   </g>
   <g id="line2d_27">
    <g clip-path="url(#p066cdde9af)">
     <use style="stroke:#000000;" x="837.219757" xlink:href="#m2f43dfb56b" y="382.362632"/>
    </g>
   </g>
   <g id="line2d_28">
    <g clip-path="url(#p066cdde9af)">
     <use style="stroke:#000000;" x="848.446458" xlink:href="#m2f43dfb56b" y="382.362632"/>
    </g>
   </g>
   <g id="line2d_29">
    <g clip-path="url(#p066cdde9af)">
     <use style="stroke:#000000;" x="837.219757" xlink:href="#m2f43dfb56b" y="364.954737"/>
    </g>
   </g>
   <g id="line2d_30">
    <g clip-path="url(#p066cdde9af)">
     <use style="stroke:#000000;" x="848.446458" xlink:href="#m2f43dfb56b" y="364.954737"/>
    </g>
   </g>
   <g id="line2d_31">
    <g clip-path="url(#p066cdde9af)">
     <use style="stroke:#000000;" x="837.219757" xlink:href="#m2f43dfb56b" y="347.546842"/>
    </g>
   </g>
   <g id="line2d_32">
    <g clip-path="url(#p066cdde9af)">
     <use style="stroke:#000000;" x="848.446458" xlink:href="#m2f43dfb56b" y="347.546842"/>
    </g>
   </g>
  </g>
  <g id="axes_21">
   <g id="patch_54">
    <path d="M 135 495.663158 
L 218.7 495.663158 
L 218.7 419.068421 
L 135 419.068421 
z
" style="fill:#ffffff;"/>
   </g>
   <g id="patch_55">
    <path clip-path="url(#pcb78e238a1)" d="M 135 495.663158 
L 218.7 495.663158 
L 218.7 419.068421 
L 135 419.068421 
z
" style="fill:#084a91;stroke:#000000;stroke-linejoin:miter;"/>
   </g>
   <g id="matplotlib.axis_41"/>
   <g id="matplotlib.axis_42"/>
  </g>
  <g id="axes_22">
   <g id="patch_56">
    <path d="M 218.7 495.663158 
L 302.4 495.663158 
L 302.4 419.068421 
L 218.7 419.068421 
z
" style="fill:#ffffff;"/>
   </g>
   <g id="patch_57">
    <path clip-path="url(#p061fc96baf)" d="M 218.7 495.663158 
L 302.4 495.663158 
L 302.4 419.068421 
L 218.7 419.068421 
z
" style="fill:#e25508;stroke:#000000;stroke-linejoin:miter;"/>
   </g>
   <g id="matplotlib.axis_43"/>
   <g id="matplotlib.axis_44"/>
  </g>
  <g id="axes_23">
   <g id="patch_58">
    <path d="M 302.4 495.663158 
L 386.1 495.663158 
L 386.1 419.068421 
L 302.4 419.068421 
z
" style="fill:#ffffff;"/>
   </g>
   <g id="patch_59">
    <path clip-path="url(#p013add2ea9)" d="M 302.4 495.663158 
L 386.1 495.663158 
L 386.1 419.068421 
L 302.4 419.068421 
z
" style="fill:#2f974e;stroke:#000000;stroke-linejoin:miter;"/>
   </g>
   <g id="matplotlib.axis_45"/>
   <g id="matplotlib.axis_46"/>
  </g>
  <g id="axes_24">
   <g id="patch_60">
    <path d="M 386.1 495.663158 
L 469.8 495.663158 
L 469.8 419.068421 
L 386.1 419.068421 
z
" style="fill:#ffffff;"/>
   </g>
   <g id="patch_61">
    <path clip-path="url(#p155087525f)" d="M 386.1 495.663158 
L 469.8 495.663158 
L 469.8 419.068421 
L 386.1 419.068421 
z
" style="fill:#fb694a;stroke:#000000;stroke-linejoin:miter;"/>
   </g>
   <g id="matplotlib.axis_47"/>
   <g id="matplotlib.axis_48"/>
  </g>
  <g id="axes_25">
   <g id="patch_62">
    <path d="M 469.8 495.663158 
L 972 495.663158 
L 972 419.068421 
L 469.8 419.068421 
z
" style="fill:none;opacity:0;"/>
   </g>
   <g id="patch_63">
    <path clip-path="url(#p951a37deb6)" d="M 469.8 492.181579 
L 936.859013 492.181579 
L 936.859013 474.773684 
L 469.8 474.773684 
z
" style="fill:#c8c8c8;stroke:#000000;stroke-linejoin:miter;"/>
   </g>
   <g id="patch_64">
    <path clip-path="url(#p951a37deb6)" d="M 469.8 474.773684 
L 806.082489 474.773684 
L 806.082489 457.365789 
L 469.8 457.365789 
z
" style="fill:#888888;stroke:#000000;stroke-linejoin:miter;"/>
   </g>
   <g id="patch_65">
    <path clip-path="url(#p951a37deb6)" d="M 469.8 457.365789 
L 806.082489 457.365789 
L 806.082489 439.957895 
L 469.8 439.957895 
z
" style="fill:#484848;stroke:#000000;stroke-linejoin:miter;"/>
   </g>
   <g id="patch_66">
    <path clip-path="url(#p951a37deb6)" d="M 469.8 439.957895 
L 806.082489 439.957895 
L 806.082489 422.55 
L 469.8 422.55 
z
" style="stroke:#000000;stroke-linejoin:miter;"/>
   </g>
   <g id="matplotlib.axis_49"/>
   <g id="matplotlib.axis_50"/>
   <g id="LineCollection_17">
    <path clip-path="url(#p951a37deb6)" d="M 936.859013 483.477632 
L 948.085714 483.477632 
" style="fill:none;stroke:#000000;stroke-width:1.5;"/>
   </g>
   <g id="LineCollection_18">
    <path clip-path="url(#p951a37deb6)" d="M 806.082489 466.069737 
L 817.309191 466.069737 
" style="fill:none;stroke:#000000;stroke-width:1.5;"/>
   </g>
   <g id="LineCollection_19">
    <path clip-path="url(#p951a37deb6)" d="M 806.082489 448.661842 
L 817.309191 448.661842 
" style="fill:none;stroke:#000000;stroke-width:1.5;"/>
   </g>
   <g id="LineCollection_20">
    <path clip-path="url(#p951a37deb6)" d="M 806.082489 431.253947 
L 817.309191 431.253947 
" style="fill:none;stroke:#000000;stroke-width:1.5;"/>
   </g>
   <g id="line2d_33">
    <g clip-path="url(#p951a37deb6)">
     <use style="stroke:#000000;" x="936.859013" xlink:href="#m2f43dfb56b" y="483.477632"/>
    </g>
   </g>
   <g id="line2d_34">
    <g clip-path="url(#p951a37deb6)">
     <use style="stroke:#000000;" x="948.085714" xlink:href="#m2f43dfb56b" y="483.477632"/>
    </g>
   </g>
   <g id="line2d_35">
    <g clip-path="url(#p951a37deb6)">
     <use style="stroke:#000000;" x="806.082489" xlink:href="#m2f43dfb56b" y="466.069737"/>
    </g>
   </g>
   <g id="line2d_36">
    <g clip-path="url(#p951a37deb6)">
     <use style="stroke:#000000;" x="817.309191" xlink:href="#m2f43dfb56b" y="466.069737"/>
    </g>
   </g>
   <g id="line2d_37">
    <g clip-path="url(#p951a37deb6)">
     <use style="stroke:#000000;" x="806.082489" xlink:href="#m2f43dfb56b" y="448.661842"/>
    </g>
   </g>
   <g id="line2d_38">
    <g clip-path="url(#p951a37deb6)">
     <use style="stroke:#000000;" x="817.309191" xlink:href="#m2f43dfb56b" y="448.661842"/>
    </g>
   </g>
   <g id="line2d_39">
    <g clip-path="url(#p951a37deb6)">
     <use style="stroke:#000000;" x="806.082489" xlink:href="#m2f43dfb56b" y="431.253947"/>
    </g>
   </g>
   <g id="line2d_40">
    <g clip-path="url(#p951a37deb6)">
     <use style="stroke:#000000;" x="817.309191" xlink:href="#m2f43dfb56b" y="431.253947"/>
    </g>
   </g>
  </g>
  <g id="axes_26">
   <g id="patch_67">
    <path d="M 135 579.370263 
L 218.7 579.370263 
L 218.7 502.775526 
L 135 502.775526 
z
" style="fill:#ffffff;"/>
   </g>
   <g id="patch_68">
    <path clip-path="url(#p572dbccf6b)" d="M 135 579.370263 
L 218.7 579.370263 
L 218.7 502.775526 
L 135 502.775526 
z
" style="fill:#08306b;stroke:#000000;stroke-linejoin:miter;"/>
   </g>
   <g id="matplotlib.axis_51"/>
   <g id="matplotlib.axis_52"/>
  </g>
  <g id="axes_27">
   <g id="patch_69">
    <path d="M 218.7 579.370263 
L 302.4 579.370263 
L 302.4 502.775526 
L 218.7 502.775526 
z
" style="fill:#ffffff;"/>
   </g>
   <g id="patch_70">
    <path clip-path="url(#pc73385dee8)" d="M 218.7 579.370263 
L 302.4 579.370263 
L 302.4 502.775526 
L 218.7 502.775526 
z
" style="fill:#fdc38d;stroke:#000000;stroke-linejoin:miter;"/>
   </g>
   <g id="matplotlib.axis_53"/>
   <g id="matplotlib.axis_54"/>
  </g>
  <g id="axes_28">
   <g id="patch_71">
    <path d="M 302.4 579.370263 
L 386.1 579.370263 
L 386.1 502.775526 
L 302.4 502.775526 
z
" style="fill:#ffffff;"/>
   </g>
   <g id="patch_72">
    <path clip-path="url(#p11a6458fbb)" d="M 302.4 579.370263 
L 386.1 579.370263 
L 386.1 502.775526 
L 302.4 502.775526 
z
" style="fill:#b8e3b2;stroke:#000000;stroke-linejoin:miter;"/>
   </g>
   <g id="matplotlib.axis_55"/>
   <g id="matplotlib.axis_56"/>
  </g>
  <g id="axes_29">
   <g id="patch_73">
    <path d="M 386.1 579.370263 
L 469.8 579.370263 
L 469.8 502.775526 
L 386.1 502.775526 
z
" style="fill:#ffffff;"/>
   </g>
   <g id="patch_74">
    <path clip-path="url(#p011ccca443)" d="M 386.1 579.370263 
L 469.8 579.370263 
L 469.8 502.775526 
L 386.1 502.775526 
z
" style="fill:#fcab8f;stroke:#000000;stroke-linejoin:miter;"/>
   </g>
   <g id="matplotlib.axis_57"/>
   <g id="matplotlib.axis_58"/>
  </g>
  <g id="axes_30">
   <g id="patch_75">
    <path d="M 469.8 579.370263 
L 972 579.370263 
L 972 502.775526 
L 469.8 502.775526 
z
" style="fill:none;opacity:0;"/>
   </g>
   <g id="patch_76">
    <path clip-path="url(#p76ac4a2ea6)" d="M 469.8 575.888684 
L 936.859013 575.888684 
L 936.859013 558.480789 
L 469.8 558.480789 
z
" style="fill:#c8c8c8;stroke:#000000;stroke-linejoin:miter;"/>
   </g>
   <g id="patch_77">
    <path clip-path="url(#p76ac4a2ea6)" d="M 469.8 558.480789 
L 930.631559 558.480789 
L 930.631559 541.072895 
L 469.8 541.072895 
z
" style="fill:#888888;stroke:#000000;stroke-linejoin:miter;"/>
   </g>
   <g id="patch_78">
    <path clip-path="url(#p76ac4a2ea6)" d="M 469.8 541.072895 
L 837.219757 541.072895 
L 837.219757 523.665 
L 469.8 523.665 
z
" style="fill:#484848;stroke:#000000;stroke-linejoin:miter;"/>
   </g>
   <g id="patch_79">
    <path clip-path="url(#p76ac4a2ea6)" d="M 469.8 523.665 
L 837.219757 523.665 
L 837.219757 506.257105 
L 469.8 506.257105 
z
" style="stroke:#000000;stroke-linejoin:miter;"/>
   </g>
   <g id="matplotlib.axis_59"/>
   <g id="matplotlib.axis_60"/>
   <g id="LineCollection_21">
    <path clip-path="url(#p76ac4a2ea6)" d="M 936.859013 567.184737 
L 948.085714 567.184737 
" style="fill:none;stroke:#000000;stroke-width:1.5;"/>
   </g>
   <g id="LineCollection_22">
    <path clip-path="url(#p76ac4a2ea6)" d="M 930.631559 549.776842 
L 941.858261 549.776842 
" style="fill:none;stroke:#000000;stroke-width:1.5;"/>
   </g>
   <g id="LineCollection_23">
    <path clip-path="url(#p76ac4a2ea6)" d="M 837.219757 532.368947 
L 848.446458 532.368947 
" style="fill:none;stroke:#000000;stroke-width:1.5;"/>
   </g>
   <g id="LineCollection_24">
    <path clip-path="url(#p76ac4a2ea6)" d="M 837.219757 514.961053 
L 848.446458 514.961053 
" style="fill:none;stroke:#000000;stroke-width:1.5;"/>
   </g>
   <g id="line2d_41">
    <g clip-path="url(#p76ac4a2ea6)">
     <use style="stroke:#000000;" x="936.859013" xlink:href="#m2f43dfb56b" y="567.184737"/>
    </g>
   </g>
   <g id="line2d_42">
    <g clip-path="url(#p76ac4a2ea6)">
     <use style="stroke:#000000;" x="948.085714" xlink:href="#m2f43dfb56b" y="567.184737"/>
    </g>
   </g>
   <g id="line2d_43">
    <g clip-path="url(#p76ac4a2ea6)">
     <use style="stroke:#000000;" x="930.631559" xlink:href="#m2f43dfb56b" y="549.776842"/>
    </g>
   </g>
   <g id="line2d_44">
    <g clip-path="url(#p76ac4a2ea6)">
     <use style="stroke:#000000;" x="941.858261" xlink:href="#m2f43dfb56b" y="549.776842"/>
    </g>
   </g>
   <g id="line2d_45">
    <g clip-path="url(#p76ac4a2ea6)">
     <use style="stroke:#000000;" x="837.219757" xlink:href="#m2f43dfb56b" y="532.368947"/>
    </g>
   </g>
   <g id="line2d_46">
    <g clip-path="url(#p76ac4a2ea6)">
     <use style="stroke:#000000;" x="848.446458" xlink:href="#m2f43dfb56b" y="532.368947"/>
    </g>
   </g>
   <g id="line2d_47">
    <g clip-path="url(#p76ac4a2ea6)">
     <use style="stroke:#000000;" x="837.219757" xlink:href="#m2f43dfb56b" y="514.961053"/>
    </g>
   </g>
   <g id="line2d_48">
    <g clip-path="url(#p76ac4a2ea6)">
     <use style="stroke:#000000;" x="848.446458" xlink:href="#m2f43dfb56b" y="514.961053"/>
    </g>
   </g>
  </g>
  <g id="axes_31">
   <g id="patch_80">
    <path d="M 135 624.78 
L 218.7 624.78 
L 218.7 586.482632 
L 135 586.482632 
z
" style="fill:none;opacity:0;"/>
   </g>
   <g id="matplotlib.axis_61"/>
   <g id="matplotlib.axis_62"/>
  </g>
  <g id="axes_32">
   <g id="patch_81">
    <path d="M 218.7 624.78 
L 302.4 624.78 
L 302.4 586.482632 
L 218.7 586.482632 
z
" style="fill:none;opacity:0;"/>
   </g>
   <g id="matplotlib.axis_63"/>
   <g id="matplotlib.axis_64"/>
  </g>
  <g id="axes_33">
   <g id="patch_82">
    <path d="M 302.4 624.78 
L 386.1 624.78 
L 386.1 586.482632 
L 302.4 586.482632 
z
" style="fill:none;opacity:0;"/>
   </g>
   <g id="matplotlib.axis_65"/>
   <g id="matplotlib.axis_66"/>
  </g>
  <g id="axes_34">
   <g id="patch_83">
    <path d="M 386.1 624.78 
L 469.8 624.78 
L 469.8 586.482632 
L 386.1 586.482632 
z
" style="fill:none;opacity:0;"/>
   </g>
   <g id="matplotlib.axis_67"/>
   <g id="matplotlib.axis_68"/>
  </g>
  <g id="axes_35">
   <g id="patch_84">
    <path d="M 469.8 624.78 
L 972 624.78 
L 972 586.482632 
L 469.8 586.482632 
z
" style="fill:none;opacity:0;"/>
   </g>
   <g id="matplotlib.axis_69"/>
   <g id="matplotlib.axis_70"/>
  </g>
  <g id="legend_1">
   <g id="patch_85">
    <path d="M 314.011719 697 
L 765.988281 697 
Q 767.988281 697 767.988281 695 
L 767.988281 582.7 
Q 767.988281 580.7 765.988281 580.7 
L 314.011719 580.7 
Q 312.011719 580.7 312.011719 582.7 
L 312.011719 695 
Q 312.011719 697 314.011719 697 
z
" style="fill:none;opacity:0;"/>
   </g>
   <g id="line2d_49">
    <path d="M 316.011719 590.75 
L 337.011719 590.75 
" style="fill:none;stroke:#1f77b4;stroke-linecap:square;stroke-opacity:0;stroke-width:1.5;"/>
   </g>
   <g id="line2d_50"/>
   <g id="text_1">
    <!-- Index 1 -->
    <defs>
     <path d="M 9.8125 72.90625 
L 19.671875 72.90625 
L 19.671875 0 
L 9.8125 0 
z
" id="DejaVuSans-73"/>
     <path d="M 54.890625 33.015625 
L 54.890625 0 
L 45.90625 0 
L 45.90625 32.71875 
Q 45.90625 40.484375 42.875 44.328125 
Q 39.84375 48.1875 33.796875 48.1875 
Q 26.515625 48.1875 22.3125 43.546875 
Q 18.109375 38.921875 18.109375 30.90625 
L 18.109375 0 
L 9.078125 0 
L 9.078125 54.6875 
L 18.109375 54.6875 
L 18.109375 46.1875 
Q 21.34375 51.125 25.703125 53.5625 
Q 30.078125 56 35.796875 56 
Q 45.21875 56 50.046875 50.171875 
Q 54.890625 44.34375 54.890625 33.015625 
z
" id="DejaVuSans-110"/>
     <path d="M 45.40625 46.390625 
L 45.40625 75.984375 
L 54.390625 75.984375 
L 54.390625 0 
L 45.40625 0 
L 45.40625 8.203125 
Q 42.578125 3.328125 38.25 0.953125 
Q 33.9375 -1.421875 27.875 -1.421875 
Q 17.96875 -1.421875 11.734375 6.484375 
Q 5.515625 14.40625 5.515625 27.296875 
Q 5.515625 40.1875 11.734375 48.09375 
Q 17.96875 56 27.875 56 
Q 33.9375 56 38.25 53.625 
Q 42.578125 51.265625 45.40625 46.390625 
z
M 14.796875 27.296875 
Q 14.796875 17.390625 18.875 11.75 
Q 22.953125 6.109375 30.078125 6.109375 
Q 37.203125 6.109375 41.296875 11.75 
Q 45.40625 17.390625 45.40625 27.296875 
Q 45.40625 37.203125 41.296875 42.84375 
Q 37.203125 48.484375 30.078125 48.484375 
Q 22.953125 48.484375 18.875 42.84375 
Q 14.796875 37.203125 14.796875 27.296875 
z
" id="DejaVuSans-100"/>
     <path d="M 56.203125 29.59375 
L 56.203125 25.203125 
L 14.890625 25.203125 
Q 15.484375 15.921875 20.484375 11.0625 
Q 25.484375 6.203125 34.421875 6.203125 
Q 39.59375 6.203125 44.453125 7.46875 
Q 49.3125 8.734375 54.109375 11.28125 
L 54.109375 2.78125 
Q 49.265625 0.734375 44.1875 -0.34375 
Q 39.109375 -1.421875 33.890625 -1.421875 
Q 20.796875 -1.421875 13.15625 6.1875 
Q 5.515625 13.8125 5.515625 26.8125 
Q 5.515625 40.234375 12.765625 48.109375 
Q 20.015625 56 32.328125 56 
Q 43.359375 56 49.78125 48.890625 
Q 56.203125 41.796875 56.203125 29.59375 
z
M 47.21875 32.234375 
Q 47.125 39.59375 43.09375 43.984375 
Q 39.0625 48.390625 32.421875 48.390625 
Q 24.90625 48.390625 20.390625 44.140625 
Q 15.875 39.890625 15.1875 32.171875 
z
" id="DejaVuSans-101"/>
     <path d="M 54.890625 54.6875 
L 35.109375 28.078125 
L 55.90625 0 
L 45.3125 0 
L 29.390625 21.484375 
L 13.484375 0 
L 2.875 0 
L 24.125 28.609375 
L 4.6875 54.6875 
L 15.28125 54.6875 
L 29.78125 35.203125 
L 44.28125 54.6875 
z
" id="DejaVuSans-120"/>
     <path id="DejaVuSans-32"/>
     <path d="M 12.40625 8.296875 
L 28.515625 8.296875 
L 28.515625 63.921875 
L 10.984375 60.40625 
L 10.984375 69.390625 
L 28.421875 72.90625 
L 38.28125 72.90625 
L 38.28125 8.296875 
L 54.390625 8.296875 
L 54.390625 0 
L 12.40625 0 
z
" id="DejaVuSans-49"/>
    </defs>
    <g transform="translate(345.011719 596.8)scale(0.1 -0.1)">
     <use xlink:href="#DejaVuSans-73"/>
     <use x="29.492188" xlink:href="#DejaVuSans-110"/>
     <use x="92.871094" xlink:href="#DejaVuSans-100"/>
     <use x="156.347656" xlink:href="#DejaVuSans-101"/>
     <use x="217.855469" xlink:href="#DejaVuSans-120"/>
     <use x="277.035156" xlink:href="#DejaVuSans-32"/>
     <use x="308.822266" xlink:href="#DejaVuSans-49"/>
    </g>
   </g>
   <g id="patch_86">
    <path d="M 316.011719 620.8 
L 337.011719 620.8 
L 337.011719 602.75 
L 316.011719 602.75 
z
" style="fill:#b7d4ea;opacity:0.7;stroke:#000000;stroke-linejoin:miter;"/>
   </g>
   <g id="text_2">
    <!-- A -->
    <defs>
     <path d="M 34.1875 63.1875 
L 20.796875 26.90625 
L 47.609375 26.90625 
z
M 28.609375 72.90625 
L 39.796875 72.90625 
L 67.578125 0 
L 57.328125 0 
L 50.6875 18.703125 
L 17.828125 18.703125 
L 11.1875 0 
L 0.78125 0 
z
" id="DejaVuSans-65"/>
    </defs>
    <g transform="translate(345.011719 614.85)scale(0.1 -0.1)">
     <use xlink:href="#DejaVuSans-65"/>
    </g>
   </g>
   <g id="patch_87">
    <path d="M 316.011719 638.85 
L 337.011719 638.85 
L 337.011719 620.8 
L 316.011719 620.8 
z
" style="fill:#6aaed6;opacity:0.7;stroke:#000000;stroke-linejoin:miter;"/>
   </g>
   <g id="text_3">
    <!-- B -->
    <defs>
     <path d="M 19.671875 34.8125 
L 19.671875 8.109375 
L 35.5 8.109375 
Q 43.453125 8.109375 47.28125 11.40625 
Q 51.125 14.703125 51.125 21.484375 
Q 51.125 28.328125 47.28125 31.5625 
Q 43.453125 34.8125 35.5 34.8125 
z
M 19.671875 64.796875 
L 19.671875 42.828125 
L 34.28125 42.828125 
Q 41.5 42.828125 45.03125 45.53125 
Q 48.578125 48.25 48.578125 53.8125 
Q 48.578125 59.328125 45.03125 62.0625 
Q 41.5 64.796875 34.28125 64.796875 
z
M 9.8125 72.90625 
L 35.015625 72.90625 
Q 46.296875 72.90625 52.390625 68.21875 
Q 58.5 63.53125 58.5 54.890625 
Q 58.5 48.1875 55.375 44.234375 
Q 52.25 40.28125 46.1875 39.3125 
Q 53.46875 37.75 57.5 32.78125 
Q 61.53125 27.828125 61.53125 20.40625 
Q 61.53125 10.640625 54.890625 5.3125 
Q 48.25 0 35.984375 0 
L 9.8125 0 
z
" id="DejaVuSans-66"/>
    </defs>
    <g transform="translate(345.011719 632.9)scale(0.1 -0.1)">
     <use xlink:href="#DejaVuSans-66"/>
    </g>
   </g>
   <g id="patch_88">
    <path d="M 316.011719 656.9 
L 337.011719 656.9 
L 337.011719 638.85 
L 316.011719 638.85 
z
" style="fill:#2e7ebc;opacity:0.7;stroke:#000000;stroke-linejoin:miter;"/>
   </g>
   <g id="text_4">
    <!-- D -->
    <defs>
     <path d="M 19.671875 64.796875 
L 19.671875 8.109375 
L 31.59375 8.109375 
Q 46.6875 8.109375 53.6875 14.9375 
Q 60.6875 21.78125 60.6875 36.53125 
Q 60.6875 51.171875 53.6875 57.984375 
Q 46.6875 64.796875 31.59375 64.796875 
z
M 9.8125 72.90625 
L 30.078125 72.90625 
Q 51.265625 72.90625 61.171875 64.09375 
Q 71.09375 55.28125 71.09375 36.53125 
Q 71.09375 17.671875 61.125 8.828125 
Q 51.171875 0 30.078125 0 
L 9.8125 0 
z
" id="DejaVuSans-68"/>
    </defs>
    <g transform="translate(345.011719 650.95)scale(0.1 -0.1)">
     <use xlink:href="#DejaVuSans-68"/>
    </g>
   </g>
   <g id="patch_89">
    <path d="M 316.011719 674.95 
L 337.011719 674.95 
L 337.011719 656.9 
L 316.011719 656.9 
z
" style="fill:#084a91;opacity:0.7;stroke:#000000;stroke-linejoin:miter;"/>
   </g>
   <g id="text_5">
    <!-- E -->
    <defs>
     <path d="M 9.8125 72.90625 
L 55.90625 72.90625 
L 55.90625 64.59375 
L 19.671875 64.59375 
L 19.671875 43.015625 
L 54.390625 43.015625 
L 54.390625 34.71875 
L 19.671875 34.71875 
L 19.671875 8.296875 
L 56.78125 8.296875 
L 56.78125 0 
L 9.8125 0 
z
" id="DejaVuSans-69"/>
    </defs>
    <g transform="translate(345.011719 669)scale(0.1 -0.1)">
     <use xlink:href="#DejaVuSans-69"/>
    </g>
   </g>
   <g id="patch_90">
    <path d="M 316.011719 693 
L 337.011719 693 
L 337.011719 674.95 
L 316.011719 674.95 
z
" style="fill:#08306b;opacity:0.7;stroke:#000000;stroke-linejoin:miter;"/>
   </g>
   <g id="text_6">
    <!-- F -->
    <defs>
     <path d="M 9.8125 72.90625 
L 51.703125 72.90625 
L 51.703125 64.59375 
L 19.671875 64.59375 
L 19.671875 43.109375 
L 48.578125 43.109375 
L 48.578125 34.8125 
L 19.671875 34.8125 
L 19.671875 0 
L 9.8125 0 
z
" id="DejaVuSans-70"/>
    </defs>
    <g transform="translate(345.011719 687.05)scale(0.1 -0.1)">
     <use xlink:href="#DejaVuSans-70"/>
    </g>
   </g>
   <g id="line2d_51">
    <path d="M 402.258594 590.75 
L 423.258594 590.75 
" style="fill:none;stroke:#1f77b4;stroke-linecap:square;stroke-opacity:0;stroke-width:1.5;"/>
   </g>
   <g id="line2d_52"/>
   <g id="text_7">
    <!-- Index 2 -->
    <defs>
     <path d="M 19.1875 8.296875 
L 53.609375 8.296875 
L 53.609375 0 
L 7.328125 0 
L 7.328125 8.296875 
Q 12.9375 14.109375 22.625 23.890625 
Q 32.328125 33.6875 34.8125 36.53125 
Q 39.546875 41.84375 41.421875 45.53125 
Q 43.3125 49.21875 43.3125 52.78125 
Q 43.3125 58.59375 39.234375 62.25 
Q 35.15625 65.921875 28.609375 65.921875 
Q 23.96875 65.921875 18.8125 64.3125 
Q 13.671875 62.703125 7.8125 59.421875 
L 7.8125 69.390625 
Q 13.765625 71.78125 18.9375 73 
Q 24.125 74.21875 28.421875 74.21875 
Q 39.75 74.21875 46.484375 68.546875 
Q 53.21875 62.890625 53.21875 53.421875 
Q 53.21875 48.921875 51.53125 44.890625 
Q 49.859375 40.875 45.40625 35.40625 
Q 44.1875 33.984375 37.640625 27.21875 
Q 31.109375 20.453125 19.1875 8.296875 
z
" id="DejaVuSans-50"/>
    </defs>
    <g transform="translate(431.258594 596.8)scale(0.1 -0.1)">
     <use xlink:href="#DejaVuSans-73"/>
     <use x="29.492188" xlink:href="#DejaVuSans-110"/>
     <use x="92.871094" xlink:href="#DejaVuSans-100"/>
     <use x="156.347656" xlink:href="#DejaVuSans-101"/>
     <use x="217.855469" xlink:href="#DejaVuSans-120"/>
     <use x="277.035156" xlink:href="#DejaVuSans-32"/>
     <use x="308.822266" xlink:href="#DejaVuSans-50"/>
    </g>
   </g>
   <g id="patch_91">
    <path d="M 402.258594 620.8 
L 423.258594 620.8 
L 423.258594 602.75 
L 402.258594 602.75 
z
" style="fill:#fdc38d;opacity:0.7;stroke:#000000;stroke-linejoin:miter;"/>
   </g>
   <g id="text_8">
    <!-- A -->
    <g transform="translate(431.258594 614.85)scale(0.1 -0.1)">
     <use xlink:href="#DejaVuSans-65"/>
    </g>
   </g>
   <g id="patch_92">
    <path d="M 402.258594 638.85 
L 423.258594 638.85 
L 423.258594 620.8 
L 402.258594 620.8 
z
" style="fill:#fd8c3b;opacity:0.7;stroke:#000000;stroke-linejoin:miter;"/>
   </g>
   <g id="text_9">
    <!-- B -->
    <g transform="translate(431.258594 632.9)scale(0.1 -0.1)">
     <use xlink:href="#DejaVuSans-66"/>
    </g>
   </g>
   <g id="patch_93">
    <path d="M 402.258594 656.9 
L 423.258594 656.9 
L 423.258594 638.85 
L 402.258594 638.85 
z
" style="fill:#e25508;opacity:0.7;stroke:#000000;stroke-linejoin:miter;"/>
   </g>
   <g id="text_10">
    <!-- C -->
    <defs>
     <path d="M 64.40625 67.28125 
L 64.40625 56.890625 
Q 59.421875 61.53125 53.78125 63.8125 
Q 48.140625 66.109375 41.796875 66.109375 
Q 29.296875 66.109375 22.65625 58.46875 
Q 16.015625 50.828125 16.015625 36.375 
Q 16.015625 21.96875 22.65625 14.328125 
Q 29.296875 6.6875 41.796875 6.6875 
Q 48.140625 6.6875 53.78125 8.984375 
Q 59.421875 11.28125 64.40625 15.921875 
L 64.40625 5.609375 
Q 59.234375 2.09375 53.4375 0.328125 
Q 47.65625 -1.421875 41.21875 -1.421875 
Q 24.65625 -1.421875 15.125 8.703125 
Q 5.609375 18.84375 5.609375 36.375 
Q 5.609375 53.953125 15.125 64.078125 
Q 24.65625 74.21875 41.21875 74.21875 
Q 47.75 74.21875 53.53125 72.484375 
Q 59.328125 70.75 64.40625 67.28125 
z
" id="DejaVuSans-67"/>
    </defs>
    <g transform="translate(431.258594 650.95)scale(0.1 -0.1)">
     <use xlink:href="#DejaVuSans-67"/>
    </g>
   </g>
   <g id="line2d_53">
    <path d="M 402.258594 662.95 
L 423.258594 662.95 
" style="fill:none;stroke:#1f77b4;stroke-linecap:square;stroke-opacity:0;stroke-width:1.5;"/>
   </g>
   <g id="line2d_54"/>
   <g id="line2d_55">
    <path d="M 402.258594 681 
L 423.258594 681 
" style="fill:none;stroke:#1f77b4;stroke-linecap:square;stroke-opacity:0;stroke-width:1.5;"/>
   </g>
   <g id="line2d_56"/>
   <g id="line2d_57">
    <path d="M 488.505469 590.75 
L 509.505469 590.75 
" style="fill:none;stroke:#1f77b4;stroke-linecap:square;stroke-opacity:0;stroke-width:1.5;"/>
   </g>
   <g id="line2d_58"/>
   <g id="text_11">
    <!-- Index 3 -->
    <defs>
     <path d="M 40.578125 39.3125 
Q 47.65625 37.796875 51.625 33 
Q 55.609375 28.21875 55.609375 21.1875 
Q 55.609375 10.40625 48.1875 4.484375 
Q 40.765625 -1.421875 27.09375 -1.421875 
Q 22.515625 -1.421875 17.65625 -0.515625 
Q 12.796875 0.390625 7.625 2.203125 
L 7.625 11.71875 
Q 11.71875 9.328125 16.59375 8.109375 
Q 21.484375 6.890625 26.8125 6.890625 
Q 36.078125 6.890625 40.9375 10.546875 
Q 45.796875 14.203125 45.796875 21.1875 
Q 45.796875 27.640625 41.28125 31.265625 
Q 36.765625 34.90625 28.71875 34.90625 
L 20.21875 34.90625 
L 20.21875 43.015625 
L 29.109375 43.015625 
Q 36.375 43.015625 40.234375 45.921875 
Q 44.09375 48.828125 44.09375 54.296875 
Q 44.09375 59.90625 40.109375 62.90625 
Q 36.140625 65.921875 28.71875 65.921875 
Q 24.65625 65.921875 20.015625 65.03125 
Q 15.375 64.15625 9.8125 62.3125 
L 9.8125 71.09375 
Q 15.4375 72.65625 20.34375 73.4375 
Q 25.25 74.21875 29.59375 74.21875 
Q 40.828125 74.21875 47.359375 69.109375 
Q 53.90625 64.015625 53.90625 55.328125 
Q 53.90625 49.265625 50.4375 45.09375 
Q 46.96875 40.921875 40.578125 39.3125 
z
" id="DejaVuSans-51"/>
    </defs>
    <g transform="translate(517.505469 596.8)scale(0.1 -0.1)">
     <use xlink:href="#DejaVuSans-73"/>
     <use x="29.492188" xlink:href="#DejaVuSans-110"/>
     <use x="92.871094" xlink:href="#DejaVuSans-100"/>
     <use x="156.347656" xlink:href="#DejaVuSans-101"/>
     <use x="217.855469" xlink:href="#DejaVuSans-120"/>
     <use x="277.035156" xlink:href="#DejaVuSans-32"/>
     <use x="308.822266" xlink:href="#DejaVuSans-51"/>
    </g>
   </g>
   <g id="patch_94">
    <path d="M 488.505469 620.8 
L 509.505469 620.8 
L 509.505469 602.75 
L 488.505469 602.75 
z
" style="fill:#b8e3b2;opacity:0.7;stroke:#000000;stroke-linejoin:miter;"/>
   </g>
   <g id="text_12">
    <!-- A -->
    <g transform="translate(517.505469 614.85)scale(0.1 -0.1)">
     <use xlink:href="#DejaVuSans-65"/>
    </g>
   </g>
   <g id="patch_95">
    <path d="M 488.505469 638.85 
L 509.505469 638.85 
L 509.505469 620.8 
L 488.505469 620.8 
z
" style="fill:#73c476;opacity:0.7;stroke:#000000;stroke-linejoin:miter;"/>
   </g>
   <g id="text_13">
    <!-- B -->
    <g transform="translate(517.505469 632.9)scale(0.1 -0.1)">
     <use xlink:href="#DejaVuSans-66"/>
    </g>
   </g>
   <g id="patch_96">
    <path d="M 488.505469 656.9 
L 509.505469 656.9 
L 509.505469 638.85 
L 488.505469 638.85 
z
" style="fill:#2f974e;opacity:0.7;stroke:#000000;stroke-linejoin:miter;"/>
   </g>
   <g id="text_14">
    <!-- C -->
    <g transform="translate(517.505469 650.95)scale(0.1 -0.1)">
     <use xlink:href="#DejaVuSans-67"/>
    </g>
   </g>
   <g id="line2d_59">
    <path d="M 488.505469 662.95 
L 509.505469 662.95 
" style="fill:none;stroke:#1f77b4;stroke-linecap:square;stroke-opacity:0;stroke-width:1.5;"/>
   </g>
   <g id="line2d_60"/>
   <g id="line2d_61">
    <path d="M 488.505469 681 
L 509.505469 681 
" style="fill:none;stroke:#1f77b4;stroke-linecap:square;stroke-opacity:0;stroke-width:1.5;"/>
   </g>
   <g id="line2d_62"/>
   <g id="line2d_63">
    <path d="M 574.752344 590.75 
L 595.752344 590.75 
" style="fill:none;stroke:#1f77b4;stroke-linecap:square;stroke-opacity:0;stroke-width:1.5;"/>
   </g>
   <g id="line2d_64"/>
   <g id="text_15">
    <!-- Index 4 -->
    <defs>
     <path d="M 37.796875 64.3125 
L 12.890625 25.390625 
L 37.796875 25.390625 
z
M 35.203125 72.90625 
L 47.609375 72.90625 
L 47.609375 25.390625 
L 58.015625 25.390625 
L 58.015625 17.1875 
L 47.609375 17.1875 
L 47.609375 0 
L 37.796875 0 
L 37.796875 17.1875 
L 4.890625 17.1875 
L 4.890625 26.703125 
z
" id="DejaVuSans-52"/>
    </defs>
    <g transform="translate(603.752344 596.8)scale(0.1 -0.1)">
     <use xlink:href="#DejaVuSans-73"/>
     <use x="29.492188" xlink:href="#DejaVuSans-110"/>
     <use x="92.871094" xlink:href="#DejaVuSans-100"/>
     <use x="156.347656" xlink:href="#DejaVuSans-101"/>
     <use x="217.855469" xlink:href="#DejaVuSans-120"/>
     <use x="277.035156" xlink:href="#DejaVuSans-32"/>
     <use x="308.822266" xlink:href="#DejaVuSans-52"/>
    </g>
   </g>
   <g id="patch_97">
    <path d="M 574.752344 620.8 
L 595.752344 620.8 
L 595.752344 602.75 
L 574.752344 602.75 
z
" style="fill:#fcab8f;opacity:0.7;stroke:#000000;stroke-linejoin:miter;"/>
   </g>
   <g id="text_16">
    <!-- A -->
    <g transform="translate(603.752344 614.85)scale(0.1 -0.1)">
     <use xlink:href="#DejaVuSans-65"/>
    </g>
   </g>
   <g id="patch_98">
    <path d="M 574.752344 638.85 
L 595.752344 638.85 
L 595.752344 620.8 
L 574.752344 620.8 
z
" style="fill:#fb694a;opacity:0.7;stroke:#000000;stroke-linejoin:miter;"/>
   </g>
   <g id="text_17">
    <!-- B -->
    <g transform="translate(603.752344 632.9)scale(0.1 -0.1)">
     <use xlink:href="#DejaVuSans-66"/>
    </g>
   </g>
   <g id="patch_99">
    <path d="M 574.752344 656.9 
L 595.752344 656.9 
L 595.752344 638.85 
L 574.752344 638.85 
z
" style="fill:#d92523;opacity:0.7;stroke:#000000;stroke-linejoin:miter;"/>
   </g>
   <g id="text_18">
    <!-- C -->
    <g transform="translate(603.752344 650.95)scale(0.1 -0.1)">
     <use xlink:href="#DejaVuSans-67"/>
    </g>
   </g>
   <g id="patch_100">
    <path d="M 574.752344 674.95 
L 595.752344 674.95 
L 595.752344 656.9 
L 574.752344 656.9 
z
" style="fill:#980c13;opacity:0.7;stroke:#000000;stroke-linejoin:miter;"/>
   </g>
   <g id="text_19">
    <!-- D -->
    <g transform="translate(603.752344 669)scale(0.1 -0.1)">
     <use xlink:href="#DejaVuSans-68"/>
    </g>
   </g>
   <g id="line2d_65">
    <path d="M 574.752344 681 
L 595.752344 681 
" style="fill:none;stroke:#1f77b4;stroke-linecap:square;stroke-opacity:0;stroke-width:1.5;"/>
   </g>
   <g id="line2d_66"/>
   <g id="line2d_67">
    <path d="M 660.999219 590.75 
L 681.999219 590.75 
" style="fill:none;stroke:#1f77b4;stroke-linecap:square;stroke-opacity:0;stroke-width:1.5;"/>
   </g>
   <g id="line2d_68"/>
   <g id="patch_101">
    <path d="M 660.999219 620.8 
L 681.999219 620.8 
L 681.999219 602.75 
L 660.999219 602.75 
z
" style="fill:#c8c8c8;stroke:#000000;stroke-linejoin:miter;"/>
   </g>
   <g id="text_20">
    <!-- Metric 1_mean -->
    <defs>
     <path d="M 9.8125 72.90625 
L 24.515625 72.90625 
L 43.109375 23.296875 
L 61.8125 72.90625 
L 76.515625 72.90625 
L 76.515625 0 
L 66.890625 0 
L 66.890625 64.015625 
L 48.09375 14.015625 
L 38.1875 14.015625 
L 19.390625 64.015625 
L 19.390625 0 
L 9.8125 0 
z
" id="DejaVuSans-77"/>
     <path d="M 18.3125 70.21875 
L 18.3125 54.6875 
L 36.8125 54.6875 
L 36.8125 47.703125 
L 18.3125 47.703125 
L 18.3125 18.015625 
Q 18.3125 11.328125 20.140625 9.421875 
Q 21.96875 7.515625 27.59375 7.515625 
L 36.8125 7.515625 
L 36.8125 0 
L 27.59375 0 
Q 17.1875 0 13.234375 3.875 
Q 9.28125 7.765625 9.28125 18.015625 
L 9.28125 47.703125 
L 2.6875 47.703125 
L 2.6875 54.6875 
L 9.28125 54.6875 
L 9.28125 70.21875 
z
" id="DejaVuSans-116"/>
     <path d="M 41.109375 46.296875 
Q 39.59375 47.171875 37.8125 47.578125 
Q 36.03125 48 33.890625 48 
Q 26.265625 48 22.1875 43.046875 
Q 18.109375 38.09375 18.109375 28.8125 
L 18.109375 0 
L 9.078125 0 
L 9.078125 54.6875 
L 18.109375 54.6875 
L 18.109375 46.1875 
Q 20.953125 51.171875 25.484375 53.578125 
Q 30.03125 56 36.53125 56 
Q 37.453125 56 38.578125 55.875 
Q 39.703125 55.765625 41.0625 55.515625 
z
" id="DejaVuSans-114"/>
     <path d="M 9.421875 54.6875 
L 18.40625 54.6875 
L 18.40625 0 
L 9.421875 0 
z
M 9.421875 75.984375 
L 18.40625 75.984375 
L 18.40625 64.59375 
L 9.421875 64.59375 
z
" id="DejaVuSans-105"/>
     <path d="M 48.78125 52.59375 
L 48.78125 44.1875 
Q 44.96875 46.296875 41.140625 47.34375 
Q 37.3125 48.390625 33.40625 48.390625 
Q 24.65625 48.390625 19.8125 42.84375 
Q 14.984375 37.3125 14.984375 27.296875 
Q 14.984375 17.28125 19.8125 11.734375 
Q 24.65625 6.203125 33.40625 6.203125 
Q 37.3125 6.203125 41.140625 7.25 
Q 44.96875 8.296875 48.78125 10.40625 
L 48.78125 2.09375 
Q 45.015625 0.34375 40.984375 -0.53125 
Q 36.96875 -1.421875 32.421875 -1.421875 
Q 20.0625 -1.421875 12.78125 6.34375 
Q 5.515625 14.109375 5.515625 27.296875 
Q 5.515625 40.671875 12.859375 48.328125 
Q 20.21875 56 33.015625 56 
Q 37.15625 56 41.109375 55.140625 
Q 45.0625 54.296875 48.78125 52.59375 
z
" id="DejaVuSans-99"/>
     <path d="M 50.984375 -16.609375 
L 50.984375 -23.578125 
L -0.984375 -23.578125 
L -0.984375 -16.609375 
z
" id="DejaVuSans-95"/>
     <path d="M 52 44.1875 
Q 55.375 50.25 60.0625 53.125 
Q 64.75 56 71.09375 56 
Q 79.640625 56 84.28125 50.015625 
Q 88.921875 44.046875 88.921875 33.015625 
L 88.921875 0 
L 79.890625 0 
L 79.890625 32.71875 
Q 79.890625 40.578125 77.09375 44.375 
Q 74.3125 48.1875 68.609375 48.1875 
Q 61.625 48.1875 57.5625 43.546875 
Q 53.515625 38.921875 53.515625 30.90625 
L 53.515625 0 
L 44.484375 0 
L 44.484375 32.71875 
Q 44.484375 40.625 41.703125 44.40625 
Q 38.921875 48.1875 33.109375 48.1875 
Q 26.21875 48.1875 22.15625 43.53125 
Q 18.109375 38.875 18.109375 30.90625 
L 18.109375 0 
L 9.078125 0 
L 9.078125 54.6875 
L 18.109375 54.6875 
L 18.109375 46.1875 
Q 21.1875 51.21875 25.484375 53.609375 
Q 29.78125 56 35.6875 56 
Q 41.65625 56 45.828125 52.96875 
Q 50 49.953125 52 44.1875 
z
" id="DejaVuSans-109"/>
     <path d="M 34.28125 27.484375 
Q 23.390625 27.484375 19.1875 25 
Q 14.984375 22.515625 14.984375 16.5 
Q 14.984375 11.71875 18.140625 8.90625 
Q 21.296875 6.109375 26.703125 6.109375 
Q 34.1875 6.109375 38.703125 11.40625 
Q 43.21875 16.703125 43.21875 25.484375 
L 43.21875 27.484375 
z
M 52.203125 31.203125 
L 52.203125 0 
L 43.21875 0 
L 43.21875 8.296875 
Q 40.140625 3.328125 35.546875 0.953125 
Q 30.953125 -1.421875 24.3125 -1.421875 
Q 15.921875 -1.421875 10.953125 3.296875 
Q 6 8.015625 6 15.921875 
Q 6 25.140625 12.171875 29.828125 
Q 18.359375 34.515625 30.609375 34.515625 
L 43.21875 34.515625 
L 43.21875 35.40625 
Q 43.21875 41.609375 39.140625 45 
Q 35.0625 48.390625 27.6875 48.390625 
Q 23 48.390625 18.546875 47.265625 
Q 14.109375 46.140625 10.015625 43.890625 
L 10.015625 52.203125 
Q 14.9375 54.109375 19.578125 55.046875 
Q 24.21875 56 28.609375 56 
Q 40.484375 56 46.34375 49.84375 
Q 52.203125 43.703125 52.203125 31.203125 
z
" id="DejaVuSans-97"/>
    </defs>
    <g transform="translate(689.999219 614.85)scale(0.1 -0.1)">
     <use xlink:href="#DejaVuSans-77"/>
     <use x="86.279297" xlink:href="#DejaVuSans-101"/>
     <use x="147.802734" xlink:href="#DejaVuSans-116"/>
     <use x="187.011719" xlink:href="#DejaVuSans-114"/>
     <use x="228.125" xlink:href="#DejaVuSans-105"/>
     <use x="255.908203" xlink:href="#DejaVuSans-99"/>
     <use x="310.888672" xlink:href="#DejaVuSans-32"/>
     <use x="342.675781" xlink:href="#DejaVuSans-49"/>
     <use x="406.298828" xlink:href="#DejaVuSans-95"/>
     <use x="456.298828" xlink:href="#DejaVuSans-109"/>
     <use x="553.710938" xlink:href="#DejaVuSans-101"/>
     <use x="615.234375" xlink:href="#DejaVuSans-97"/>
     <use x="676.513672" xlink:href="#DejaVuSans-110"/>
    </g>
   </g>
   <g id="patch_102">
    <path d="M 660.999219 638.85 
L 681.999219 638.85 
L 681.999219 620.8 
L 660.999219 620.8 
z
" style="fill:#888888;stroke:#000000;stroke-linejoin:miter;"/>
   </g>
   <g id="text_21">
    <!-- Metric 2_mean -->
    <g transform="translate(689.999219 632.9)scale(0.1 -0.1)">
     <use xlink:href="#DejaVuSans-77"/>
     <use x="86.279297" xlink:href="#DejaVuSans-101"/>
     <use x="147.802734" xlink:href="#DejaVuSans-116"/>
     <use x="187.011719" xlink:href="#DejaVuSans-114"/>
     <use x="228.125" xlink:href="#DejaVuSans-105"/>
     <use x="255.908203" xlink:href="#DejaVuSans-99"/>
     <use x="310.888672" xlink:href="#DejaVuSans-32"/>
     <use x="342.675781" xlink:href="#DejaVuSans-50"/>
     <use x="406.298828" xlink:href="#DejaVuSans-95"/>
     <use x="456.298828" xlink:href="#DejaVuSans-109"/>
     <use x="553.710938" xlink:href="#DejaVuSans-101"/>
     <use x="615.234375" xlink:href="#DejaVuSans-97"/>
     <use x="676.513672" xlink:href="#DejaVuSans-110"/>
    </g>
   </g>
   <g id="patch_103">
    <path d="M 660.999219 656.9 
L 681.999219 656.9 
L 681.999219 638.85 
L 660.999219 638.85 
z
" style="fill:#484848;stroke:#000000;stroke-linejoin:miter;"/>
   </g>
   <g id="text_22">
    <!-- Metric 3_mean -->
    <g transform="translate(689.999219 650.95)scale(0.1 -0.1)">
     <use xlink:href="#DejaVuSans-77"/>
     <use x="86.279297" xlink:href="#DejaVuSans-101"/>
     <use x="147.802734" xlink:href="#DejaVuSans-116"/>
     <use x="187.011719" xlink:href="#DejaVuSans-114"/>
     <use x="228.125" xlink:href="#DejaVuSans-105"/>
     <use x="255.908203" xlink:href="#DejaVuSans-99"/>
     <use x="310.888672" xlink:href="#DejaVuSans-32"/>
     <use x="342.675781" xlink:href="#DejaVuSans-51"/>
     <use x="406.298828" xlink:href="#DejaVuSans-95"/>
     <use x="456.298828" xlink:href="#DejaVuSans-109"/>
     <use x="553.710938" xlink:href="#DejaVuSans-101"/>
     <use x="615.234375" xlink:href="#DejaVuSans-97"/>
     <use x="676.513672" xlink:href="#DejaVuSans-110"/>
    </g>
   </g>
   <g id="patch_104">
    <path d="M 660.999219 674.95 
L 681.999219 674.95 
L 681.999219 656.9 
L 660.999219 656.9 
z
" style="stroke:#000000;stroke-linejoin:miter;"/>
   </g>
   <g id="text_23">
    <!-- Metric 4_mean -->
    <g transform="translate(689.999219 669)scale(0.1 -0.1)">
     <use xlink:href="#DejaVuSans-77"/>
     <use x="86.279297" xlink:href="#DejaVuSans-101"/>
     <use x="147.802734" xlink:href="#DejaVuSans-116"/>
     <use x="187.011719" xlink:href="#DejaVuSans-114"/>
     <use x="228.125" xlink:href="#DejaVuSans-105"/>
     <use x="255.908203" xlink:href="#DejaVuSans-99"/>
     <use x="310.888672" xlink:href="#DejaVuSans-32"/>
     <use x="342.675781" xlink:href="#DejaVuSans-52"/>
     <use x="406.298828" xlink:href="#DejaVuSans-95"/>
     <use x="456.298828" xlink:href="#DejaVuSans-109"/>
     <use x="553.710938" xlink:href="#DejaVuSans-101"/>
     <use x="615.234375" xlink:href="#DejaVuSans-97"/>
     <use x="676.513672" xlink:href="#DejaVuSans-110"/>
    </g>
   </g>
   <g id="line2d_69">
    <path d="M 660.999219 681 
L 681.999219 681 
" style="fill:none;stroke:#1f77b4;stroke-linecap:square;stroke-opacity:0;stroke-width:1.5;"/>
   </g>
   <g id="line2d_70"/>
  </g>
 </g>
 <defs>
  <clipPath id="pddd0007fda">
   <rect height="76.594737" width="83.7" x="135" y="84.24"/>
  </clipPath>
  <clipPath id="p4f441d4d40">
   <rect height="76.594737" width="83.7" x="218.7" y="84.24"/>
  </clipPath>
  <clipPath id="p14489aa5b4">
   <rect height="76.594737" width="83.7" x="302.4" y="84.24"/>
  </clipPath>
  <clipPath id="pd5e7abeb9a">
   <rect height="76.594737" width="83.7" x="386.1" y="84.24"/>
  </clipPath>
  <clipPath id="pabfe98fef1">
   <rect height="76.594737" width="502.2" x="469.8" y="84.24"/>
  </clipPath>
  <clipPath id="p4663285465">
   <rect height="76.594737" width="83.7" x="135" y="167.947105"/>
  </clipPath>
  <clipPath id="pf9772d4f7e">
   <rect height="76.594737" width="83.7" x="218.7" y="167.947105"/>
  </clipPath>
  <clipPath id="p2599a5129e">
   <rect height="76.594737" width="83.7" x="302.4" y="167.947105"/>
  </clipPath>
  <clipPath id="pbe0bf16247">
   <rect height="76.594737" width="83.7" x="386.1" y="167.947105"/>
  </clipPath>
  <clipPath id="pb26061ec1e">
   <rect height="76.594737" width="502.2" x="469.8" y="167.947105"/>
  </clipPath>
  <clipPath id="pc7923a9f8a">
   <rect height="76.594737" width="83.7" x="135" y="251.654211"/>
  </clipPath>
  <clipPath id="p94fb7c1363">
   <rect height="76.594737" width="83.7" x="218.7" y="251.654211"/>
  </clipPath>
  <clipPath id="p653a05cf28">
   <rect height="76.594737" width="83.7" x="302.4" y="251.654211"/>
  </clipPath>
  <clipPath id="p39b9bceafd">
   <rect height="76.594737" width="83.7" x="386.1" y="251.654211"/>
  </clipPath>
  <clipPath id="p9a835d2e5c">
   <rect height="76.594737" width="502.2" x="469.8" y="251.654211"/>
  </clipPath>
  <clipPath id="p4b8be88bd0">
   <rect height="76.594737" width="83.7" x="135" y="335.361316"/>
  </clipPath>
  <clipPath id="p73a1cb43bc">
   <rect height="76.594737" width="83.7" x="218.7" y="335.361316"/>
  </clipPath>
  <clipPath id="p4fe97a0b63">
   <rect height="76.594737" width="83.7" x="302.4" y="335.361316"/>
  </clipPath>
  <clipPath id="pf0d8406505">
   <rect height="76.594737" width="83.7" x="386.1" y="335.361316"/>
  </clipPath>
  <clipPath id="p066cdde9af">
   <rect height="76.594737" width="502.2" x="469.8" y="335.361316"/>
  </clipPath>
  <clipPath id="pcb78e238a1">
   <rect height="76.594737" width="83.7" x="135" y="419.068421"/>
  </clipPath>
  <clipPath id="p061fc96baf">
   <rect height="76.594737" width="83.7" x="218.7" y="419.068421"/>
  </clipPath>
  <clipPath id="p013add2ea9">
   <rect height="76.594737" width="83.7" x="302.4" y="419.068421"/>
  </clipPath>
  <clipPath id="p155087525f">
   <rect height="76.594737" width="83.7" x="386.1" y="419.068421"/>
  </clipPath>
  <clipPath id="p951a37deb6">
   <rect height="76.594737" width="502.2" x="469.8" y="419.068421"/>
  </clipPath>
  <clipPath id="p572dbccf6b">
   <rect height="76.594737" width="83.7" x="135" y="502.775526"/>
  </clipPath>
  <clipPath id="pc73385dee8">
   <rect height="76.594737" width="83.7" x="218.7" y="502.775526"/>
  </clipPath>
  <clipPath id="p11a6458fbb">
   <rect height="76.594737" width="83.7" x="302.4" y="502.775526"/>
  </clipPath>
  <clipPath id="p011ccca443">
   <rect height="76.594737" width="83.7" x="386.1" y="502.775526"/>
  </clipPath>
  <clipPath id="p76ac4a2ea6">
   <rect height="76.594737" width="502.2" x="469.8" y="502.775526"/>
  </clipPath>
 </defs>
</svg>
